
<svg version="1.1" xmlns="http://www.w3.org/2000/svg" 
	 viewBox="0 0 124.7 124.7" >

		<path class="st0" d="M57.5,90h2.1c0.4,0,0.7,0,1,0.1s0.6,0.2,0.9,0.3c0.3,0.2,0.5,0.3,0.8,0.6s0.4,0.5,0.6,0.8
			c0.2,0.3,0.3,0.6,0.4,1s0.1,0.7,0.1,1.1v0.7c0,0.4,0,0.8-0.1,1.1s-0.2,0.7-0.3,0.9c-0.1,0.3-0.3,0.5-0.5,0.8s-0.4,0.4-0.7,0.6
			c-0.3,0.2-0.6,0.3-0.9,0.4s-0.7,0.1-1.1,0.1h-2.2V90z M58.9,97.4h0.7c0.2,0,0.5,0,0.7-0.1s0.4-0.1,0.6-0.3
			c0.2-0.1,0.3-0.3,0.5-0.4s0.2-0.4,0.3-0.6c0.1-0.2,0.1-0.4,0.2-0.6s0.1-0.5,0.1-0.7V94c0-0.3,0-0.5-0.1-0.7s-0.1-0.4-0.2-0.6
			c-0.1-0.2-0.2-0.5-0.4-0.6s-0.3-0.4-0.6-0.5c-0.2-0.1-0.3-0.2-0.5-0.2s-0.4-0.1-0.6-0.1h-0.7V97.4z"/>
		<path class="st0" d="M66.2,94.7v2.7h4.1v1.2h-5.5V90h5.5v1.2h-4.1v2.4h3.5v1.1H66.2z"/>
		<path class="st0" d="M76.3,95.9c-0.1-0.2-0.2-0.3-0.3-0.4c-0.2-0.1-0.3-0.2-0.6-0.3s-0.5-0.2-0.7-0.2c-0.4-0.1-0.8-0.3-1.1-0.4
			s-0.6-0.4-0.9-0.6c-0.2-0.2-0.4-0.5-0.6-0.7s-0.2-0.6-0.2-0.9c0-0.4,0.1-0.7,0.2-1s0.4-0.5,0.6-0.7c0.3-0.2,0.6-0.4,0.9-0.5
			s0.7-0.2,1.1-0.2c0.4,0,0.8,0.1,1.2,0.2s0.7,0.3,0.9,0.5c0.3,0.2,0.5,0.5,0.6,0.8s0.2,0.7,0.2,1.1h-1.4c0-0.2-0.1-0.4-0.1-0.6
			s-0.2-0.3-0.3-0.5c-0.1-0.1-0.3-0.2-0.5-0.3s-0.4-0.1-0.7-0.1c-0.2,0-0.4,0-0.6,0.1s-0.3,0.1-0.5,0.2c-0.1,0.1-0.2,0.2-0.3,0.4
			s-0.1,0.3-0.1,0.5c0,0.2,0.1,0.4,0.2,0.5s0.2,0.3,0.4,0.4c0.2,0.1,0.4,0.2,0.6,0.3s0.4,0.2,0.7,0.2c0.3,0.1,0.6,0.2,0.9,0.3
			s0.6,0.3,0.8,0.5c0.3,0.2,0.5,0.5,0.7,0.8s0.3,0.7,0.3,1.1c0,0.4-0.1,0.7-0.2,1s-0.4,0.5-0.6,0.7c-0.3,0.2-0.6,0.3-0.9,0.4
			s-0.7,0.1-1.1,0.1c-0.4,0-0.8-0.1-1.2-0.2s-0.8-0.3-1.1-0.6c-0.3-0.2-0.5-0.5-0.7-0.8s-0.2-0.7-0.2-1.1h1.4c0,0.3,0.1,0.5,0.2,0.7
			s0.2,0.4,0.4,0.5c0.2,0.1,0.3,0.2,0.6,0.3s0.4,0.1,0.7,0.1c0.2,0,0.4,0,0.6-0.1s0.3-0.1,0.5-0.2c0.1-0.1,0.2-0.2,0.3-0.4
			s0.1-0.3,0.1-0.5C76.4,96.2,76.4,96,76.3,95.9z"/>
		<path class="st0" d="M84.4,90v1.2h-1.8v6.2h1.8v1.2h-5v-1.2h1.8v-6.2h-1.8V90H84.4z"/>
		<path class="st0" d="M91.7,97.9c-0.2,0.1-0.4,0.2-0.6,0.3c-0.3,0.1-0.6,0.2-0.9,0.3s-0.6,0.1-1,0.1c-0.3,0-0.6,0-0.9-0.1
			s-0.5-0.2-0.8-0.4s-0.4-0.3-0.6-0.6s-0.3-0.5-0.5-0.7c-0.1-0.3-0.2-0.6-0.3-0.9S86,95.2,86,94.9v-1.1c0-0.4,0-0.7,0.1-1.1
			s0.2-0.6,0.3-0.9c0.1-0.3,0.3-0.5,0.4-0.7s0.4-0.4,0.6-0.6c0.2-0.2,0.5-0.3,0.8-0.4s0.6-0.1,0.9-0.1c0.4,0,0.8,0.1,1.2,0.2
			s0.6,0.3,0.9,0.5c0.2,0.2,0.4,0.5,0.6,0.8s0.2,0.7,0.3,1.1h-1.4c0-0.2-0.1-0.4-0.2-0.6s-0.2-0.3-0.3-0.5c-0.1-0.1-0.3-0.2-0.5-0.3
			s-0.4-0.1-0.6-0.1c-0.2,0-0.3,0-0.5,0.1s-0.3,0.1-0.4,0.2c-0.1,0.1-0.3,0.3-0.4,0.4s-0.2,0.4-0.3,0.6c-0.1,0.2-0.1,0.4-0.1,0.6
			s0,0.4,0,0.7v1.1c0,0.3,0,0.5,0.1,0.8s0.1,0.5,0.2,0.7c0.1,0.2,0.1,0.3,0.2,0.4s0.2,0.3,0.3,0.4c0.1,0.1,0.3,0.2,0.5,0.3
			s0.4,0.1,0.6,0.1c0.1,0,0.3,0,0.4,0s0.3,0,0.4-0.1c0.1,0,0.2-0.1,0.3-0.1s0.2-0.1,0.3-0.2l0-1.7h-1.5v-1.1h2.9l0,3.3
			C92,97.7,91.8,97.8,91.7,97.9z"/>
		<path class="st0" d="M97.7,98.6l-2.8-5.9l0,5.9h-1.4V90h1.4l2.8,5.8l0-5.8h1.4v8.5H97.7z"/>
		<path class="st0" d="M59.1,109.3v3.6h-1.4v-8.5h5.5v1.2h-4.1v2.6h3.6v1.2H59.1z"/>
		<path class="st0" d="M70.3,110.2c0,0.4-0.1,0.8-0.2,1.2s-0.3,0.7-0.6,0.9c-0.2,0.3-0.5,0.5-0.9,0.6s-0.7,0.2-1.2,0.2
			c-0.4,0-0.8-0.1-1.2-0.2s-0.6-0.3-0.9-0.6c-0.2-0.3-0.4-0.6-0.6-0.9s-0.2-0.8-0.2-1.2l0-5.7h1.4l0,5.7c0,0.3,0,0.5,0.1,0.7
			s0.2,0.4,0.3,0.6c0.1,0.1,0.3,0.3,0.4,0.3s0.4,0.1,0.6,0.1c0.2,0,0.4,0,0.6-0.1s0.3-0.2,0.4-0.4c0.1-0.2,0.2-0.4,0.3-0.6
			s0.1-0.5,0.1-0.7l0-5.7h1.4L70.3,110.2z"/>
		<path class="st0" d="M73.4,109.7v3.3H72v-8.5h2.7c0.4,0,0.8,0.1,1.2,0.2s0.7,0.3,1,0.5c0.3,0.2,0.5,0.5,0.6,0.8s0.2,0.7,0.2,1.1
			c0,0.3,0,0.6-0.1,0.8s-0.2,0.5-0.3,0.6s-0.3,0.4-0.5,0.5s-0.4,0.3-0.6,0.4l1.8,3.6v0.1h-1.5l-1.6-3.3H73.4z M74.7,108.5
			c0.2,0,0.5,0,0.7-0.1s0.4-0.2,0.5-0.3c0.1-0.1,0.2-0.3,0.3-0.4s0.1-0.4,0.1-0.6c0-0.2,0-0.5-0.1-0.6s-0.2-0.3-0.3-0.5
			c-0.1-0.1-0.3-0.2-0.5-0.3s-0.4-0.1-0.7-0.1h-1.3v2.9H74.7z"/>
		<path class="st0" d="M83.3,113l-2.8-5.9l0,5.9h-1.4v-8.5h1.4l2.8,5.8l0-5.8h1.4v8.5H83.3z"/>
		<path class="st0" d="M91.6,104.4v1.2h-1.8v6.2h1.8v1.2h-5v-1.2h1.8v-6.2h-1.8v-1.2H91.6z"/>
		<path class="st0" d="M97,105.6v7.4h-1.4v-7.4H93v-1.2h6.6v1.2H97z"/>
		<path class="st0" d="M106.3,110.2c0,0.4-0.1,0.8-0.2,1.2s-0.3,0.7-0.6,0.9c-0.2,0.3-0.5,0.5-0.9,0.6s-0.7,0.2-1.2,0.2
			c-0.4,0-0.8-0.1-1.2-0.2s-0.6-0.3-0.9-0.6c-0.2-0.3-0.4-0.6-0.6-0.9s-0.2-0.8-0.2-1.2l0-5.7h1.4l0,5.7c0,0.3,0,0.5,0.1,0.7
			s0.2,0.4,0.3,0.6c0.1,0.1,0.3,0.3,0.4,0.3s0.4,0.1,0.6,0.1c0.2,0,0.4,0,0.6-0.1s0.3-0.2,0.4-0.4c0.1-0.2,0.2-0.4,0.3-0.6
			s0.1-0.5,0.1-0.7l0-5.7h1.4L106.3,110.2z"/>
		<path class="st0" d="M109.4,109.7v3.3H108v-8.5h2.7c0.4,0,0.8,0.1,1.2,0.2s0.7,0.3,1,0.5c0.3,0.2,0.5,0.5,0.6,0.8s0.2,0.7,0.2,1.1
			c0,0.3,0,0.6-0.1,0.8c-0.1,0.2-0.2,0.5-0.3,0.6s-0.3,0.4-0.5,0.5s-0.4,0.3-0.6,0.4l1.8,3.6v0.1h-1.5l-1.6-3.3H109.4z M110.7,108.5
			c0.2,0,0.5,0,0.7-0.1s0.4-0.2,0.5-0.3c0.1-0.1,0.2-0.3,0.3-0.4s0.1-0.4,0.1-0.6c0-0.2,0-0.5-0.1-0.6s-0.2-0.3-0.3-0.5
			c-0.1-0.1-0.3-0.2-0.5-0.3s-0.4-0.1-0.7-0.1h-1.3v2.9H110.7z"/>
		<path class="st0" d="M116.7,109.1v2.7h4.1v1.2h-5.5v-8.5h5.5v1.2h-4.1v2.4h3.5v1.1H116.7z"/>
	
	<path class="st0" d="M3.9,11.6c28,0,50.7,22.7,50.7,50.7S32,113.1,3.9,113.1V11.6z"/>
	<circle class="st0" cx="74.4" cy="28.5" r="16.9"/>
	<circle class="st0" cx="74.4" cy="62.5" r="16.9"/>
   

</svg>